<?xml version="1.0" encoding="utf-8"?>
<!-- Generator: Adobe Illustrator 28.1.0, SVG Export Plug-In . SVG Version: 6.00 Build 0)  -->
<svg version="1.1" id="Layer_1" xmlns="http://www.w3.org/2000/svg" xmlns:xlink="http://www.w3.org/1999/xlink" x="0px" y="0px"
	 viewBox="0 0 512 512" style="enable-background:new 0 0 512 512;" xml:space="preserve">
<style type="text/css">
	.st0{fill:#FFFFFF;stroke:#000000;stroke-miterlimit:10;}
	.st1{fill:#309DD8;}
</style>
<ellipse class="st0" cx="258.5" cy="255" rx="117.5" ry="122"/>
<path class="st1" d="M279.8,49.3c-133.5-14.8-245.3,97-230.5,230.5c10.6,96,86.9,172.2,182.9,182.9
	c133.5,14.8,245.3-96.9,230.5-230.5C452,136.2,375.8,60,279.8,49.3z M347.4,260.6C347.4,260.6,347.4,260.7,347.4,260.6
	c-6.3,6.3-16.4,6.3-22.6,0.1l0,0l-52.6-52.2h-0.1v132.9c0,8.6-6.6,16.1-15.3,16.5c-9.2,0.4-16.7-6.9-16.7-16V208.5
	c0,0-0.1-0.1-0.1,0l-52.6,52.2c-6.3,6.2-16.4,6.2-22.6-0.1c-6.2-6.3-6.2-16.4,0.1-22.6l80-79.4c6.2-6.2,16.3-6.2,22.5,0l80,79.4l0,0
	C358.3,248.8,347.4,260.6,347.4,260.6z"/>
</svg>
